<?xml version="1.0" encoding="UTF-8"?>
<!DOCTYPE svg PUBLIC "-//W3C//DTD SVG 1.1//EN" "http://www.w3.org/Graphics/SVG/1.1/DTD/svg11.dtd">
<!-- Creator: CorelDRAW 2020 -->
<svg xmlns="http://www.w3.org/2000/svg" xml:space="preserve" width="895px" height="220px" version="1.1" style="shape-rendering:geometricPrecision; text-rendering:geometricPrecision; image-rendering:optimizeQuality; fill-rule:evenodd; clip-rule:evenodd"
viewBox="0 0 203.13 49.91"
 xmlns:xlink="http://www.w3.org/1999/xlink"
 xmlns:xodm="http://www.corel.com/coreldraw/odm/2003">
 <defs>
  <style type="text/css">
   <![CDATA[
    .str0 {stroke:white;stroke-width:1.22;stroke-linejoin:round;stroke-miterlimit:2.61313}
    .fil2 {fill:none;fill-rule:nonzero}
    .fil0 {fill:white}
    .fil1 {fill:white}
    .fil3 {fill:white;fill-rule:nonzero}
   ]]>
  </style>
 </defs>
 <g id="Layer_x0020_1">
  <metadata id="CorelCorpID_0Corel-Layer"/>
  <polygon class="fil0" points="29.84,4.44 29.82,10.37 41.81,5.87 41.86,0 "/>
  <g id="_1093359352">
   <path class="fil1" d="M30 41.6c-0.16,0.01 -0.33,0.01 -0.5,0.01 -1.9,0 -3.57,-0.34 -5,-1.01 -2.62,-1.24 -3.32,-3 -4.84,-5.39 -3.5,-5.47 -9.32,-14.89 -9.33,-14.93 3.2,-0.08 6.35,0.11 8.09,-1.96 1.65,-1.97 1.37,-5.61 -0.26,-7.22 -2.78,-2.73 -13.29,-1.62 -17.99,-1.61l-0.17 -1.96 0 -3.88 12.5 0c13.8,0 16.24,9.98 13.26,16.06 -1.39,2.83 -3.52,3.3 -5.04,5.17l6.36 9.64c0.66,0.69 1.43,1.03 2.32,1.03 0.19,0 0.36,-0.01 0.52,-0.03 1.79,-0.16 2.59,-1.22 2.49,-3.05l0 -14.41 0 -3.76 7.15 -2.69 0 0.71c0.01,6.78 0.04,13.51 0.04,20.33 0,0.65 -0.07,1.24 -0.19,1.87 -0.36,1.74 -1.27,3.24 -2.7,4.52 -1.82,1.61 -4.05,2.47 -6.71,2.56z"/>
   <g>
    <path class="fil2 str0" d="M51.14 21.25c-0.61,0 -1.1,0.14 -1.47,0.44 -0.38,0.3 -0.57,0.7 -0.57,1.21 0,0.43 0.15,0.82 0.45,1.17 0.3,0.36 0.68,0.68 1.14,0.96 0.46,0.29 1.08,0.63 1.88,1.04l0.94 0.49c1.45,0.74 2.58,1.38 3.42,1.92 0.83,0.55 1.55,1.27 2.16,2.16 0.62,0.88 0.93,1.95 0.93,3.19 0,2.07 -0.67,3.73 -2.03,4.98 -1.35,1.24 -3.47,1.86 -6.35,1.86 -2.53,0 -4.55,-0.57 -6.04,-1.71 -1.49,-1.13 -2.45,-2.84 -2.89,-5.15l5.52 -0.87c0.25,1.04 0.71,1.87 1.39,2.49 0.68,0.62 1.49,0.93 2.42,0.93 0.78,0 1.39,-0.16 1.83,-0.48 0.44,-0.31 0.66,-0.77 0.66,-1.36 0,-0.46 -0.16,-0.87 -0.48,-1.24 -0.32,-0.36 -0.73,-0.7 -1.24,-0.99 -0.5,-0.3 -1.12,-0.64 -1.88,-1.01 -0.75,-0.38 -1.26,-0.64 -1.51,-0.78 -1.16,-0.63 -2.14,-1.23 -2.93,-1.83 -0.78,-0.59 -1.44,-1.33 -1.95,-2.21 -0.52,-0.87 -0.78,-1.9 -0.78,-3.09 0,-1.11 0.28,-2.14 0.85,-3.11 0.56,-0.96 1.42,-1.74 2.56,-2.34 1.14,-0.59 2.53,-0.89 4.18,-0.89 2.23,0 4,0.47 5.33,1.42 1.32,0.93 2.2,2.43 2.65,4.47l-5.38 0.85c-0.27,-0.83 -0.65,-1.46 -1.14,-1.89 -0.49,-0.42 -1.04,-0.63 -1.67,-0.63zm12.97 18.89l0 -22.63 5.73 0 0 22.63 -5.73 0zm28.24 -15.98l0 15.98 -5.73 0 0 -15.17c0,-1.19 -0.18,-2.02 -0.55,-2.49 -0.38,-0.46 -0.99,-0.7 -1.81,-0.7 -0.8,0 -1.44,0.26 -1.93,0.8 -0.48,0.53 -0.83,1.35 -1.04,2.44 -0.21,1.1 -0.32,2.54 -0.32,4.31l0 10.81 -5.73 0 0 -22.63 5.32 0 0 3.23c1.4,-2.47 3.37,-3.71 5.92,-3.71 1.97,0 3.44,0.61 4.42,1.83 0.96,1.22 1.45,2.99 1.45,5.3zm17.15 -3.6l0 -3.05 5.25 0 0 23.23c0,1.83 -0.26,3.37 -0.78,4.62 -0.53,1.25 -1.43,2.22 -2.72,2.91 -1.29,0.69 -3.05,1.03 -5.26,1.03 -2.76,0 -4.87,-0.57 -6.31,-1.69 -1.45,-1.14 -2.17,-2.74 -2.17,-4.8l0 -0.44 6.44 0.65 0 0.06c0.08,1.13 0.88,1.68 2.4,1.68 0.75,0 1.32,-0.14 1.72,-0.44 0.4,-0.3 0.67,-0.74 0.82,-1.34 0.15,-0.59 0.22,-1.38 0.22,-2.39l0 -3.37c-1.16,1.95 -2.84,2.92 -5.04,2.92 -2.46,0 -4.3,-0.95 -5.53,-2.86 -1.24,-1.91 -1.86,-4.7 -1.86,-8.37 0,-3.75 0.57,-6.67 1.7,-8.75 1.14,-2.09 2.98,-3.13 5.52,-3.13 2.37,0 4.23,1.18 5.6,3.53zm-7.07 7.36c0,2.52 0.29,4.36 0.85,5.53 0.57,1.17 1.41,1.75 2.51,1.75 1.11,0 1.94,-0.54 2.49,-1.61 0.56,-1.08 0.83,-2.91 0.83,-5.49 0,-2.04 -0.3,-3.59 -0.92,-4.64 -0.62,-1.05 -1.46,-1.58 -2.52,-1.58 -1.11,0 -1.92,0.52 -2.45,1.55 -0.53,1.03 -0.79,2.52 -0.79,4.49zm32.32 12.22l-2.42 -12.98 -0.3 -1.79 -0.34 1.81 -2.52 12.96 -5.64 0 -5.87 -22.63 5.45 0 2.77 13.77 0.4 2.04 0.38 -2.15 2.53 -13.66 5.56 0 2.56 13.81c0.16,0.94 0.27,1.61 0.36,2l0.41 -2.07 2.76 -13.74 5.51 0 -5.93 22.63 -5.67 0zm13.65 -11.6c0,-2.29 0.35,-4.29 1.04,-6.02 0.68,-1.73 1.71,-3.08 3.08,-4.04 1.36,-0.97 3.04,-1.45 5.03,-1.45 2.07,0 3.78,0.52 5.12,1.54 1.35,1.03 2.33,2.42 2.97,4.17 0.63,1.75 0.94,3.76 0.94,6.01 0,2.57 -0.37,4.74 -1.1,6.52 -0.74,1.78 -1.79,3.13 -3.17,4.04 -1.36,0.9 -2.98,1.36 -4.85,1.36 -2.85,0 -5.07,-1.01 -6.67,-3.01 -1.59,-2.01 -2.39,-5.05 -2.39,-9.12zm9.08 -6.53c-1.21,0 -2.07,0.57 -2.57,1.71 -0.5,1.14 -0.76,2.85 -0.76,5.1 0,4.57 1.12,6.86 3.35,6.86 2.22,0 3.33,-2.26 3.33,-6.78 0,-2.44 -0.26,-4.2 -0.79,-5.27 -0.53,-1.08 -1.39,-1.62 -2.56,-1.62zm22.66 0.56c-1.17,0 -2.01,0.64 -2.53,1.91 -0.52,1.28 -0.78,3.29 -0.78,6.05l0 9.61 -5.73 0 0 -22.63 5.34 0 0 3.44c0.92,-2.61 2.38,-3.92 4.4,-3.92 0.87,0 1.77,0.25 2.69,0.76l-1.39 5.24c-0.75,-0.31 -1.42,-0.46 -2,-0.46zm15.36 -5.06l6.41 0 -5.83 8.14 6.44 14.49 -5.62 0 -4.2 -9.57 -1.33 1.9 0 7.67 -5.72 0 0 -23.29 5.72 0 0 8.29 4.13 -7.63z"/>
    <path id="1" class="fil3" d="M51.14 21.25c-0.61,0 -1.1,0.14 -1.47,0.44 -0.38,0.3 -0.57,0.7 -0.57,1.21 0,0.43 0.15,0.82 0.45,1.17 0.3,0.36 0.68,0.68 1.14,0.96 0.46,0.29 1.08,0.63 1.88,1.04l0.94 0.49c1.45,0.74 2.58,1.38 3.42,1.92 0.83,0.55 1.55,1.27 2.16,2.16 0.62,0.88 0.93,1.95 0.93,3.19 0,2.07 -0.67,3.73 -2.03,4.98 -1.35,1.24 -3.47,1.86 -6.35,1.86 -2.53,0 -4.55,-0.57 -6.04,-1.71 -1.49,-1.13 -2.45,-2.84 -2.89,-5.15l5.52 -0.87c0.25,1.04 0.71,1.87 1.39,2.49 0.68,0.62 1.49,0.93 2.42,0.93 0.78,0 1.39,-0.16 1.83,-0.48 0.44,-0.31 0.66,-0.77 0.66,-1.36 0,-0.46 -0.16,-0.87 -0.48,-1.24 -0.32,-0.36 -0.73,-0.7 -1.24,-0.99 -0.5,-0.3 -1.12,-0.64 -1.88,-1.01 -0.75,-0.38 -1.26,-0.64 -1.51,-0.78 -1.16,-0.63 -2.14,-1.23 -2.93,-1.83 -0.78,-0.59 -1.44,-1.33 -1.95,-2.21 -0.52,-0.87 -0.78,-1.9 -0.78,-3.09 0,-1.11 0.28,-2.14 0.85,-3.11 0.56,-0.96 1.42,-1.74 2.56,-2.34 1.14,-0.59 2.53,-0.89 4.18,-0.89 2.23,0 4,0.47 5.33,1.42 1.32,0.93 2.2,2.43 2.65,4.47l-5.38 0.85c-0.27,-0.83 -0.65,-1.46 -1.14,-1.89 -0.49,-0.42 -1.04,-0.63 -1.67,-0.63zm12.97 18.89l0 -22.63 5.73 0 0 22.63 -5.73 0zm28.24 -15.98l0 15.98 -5.73 0 0 -15.17c0,-1.19 -0.18,-2.02 -0.55,-2.49 -0.38,-0.46 -0.99,-0.7 -1.81,-0.7 -0.8,0 -1.44,0.26 -1.93,0.8 -0.48,0.53 -0.83,1.35 -1.04,2.44 -0.21,1.1 -0.32,2.54 -0.32,4.31l0 10.81 -5.73 0 0 -22.63 5.32 0 0 3.23c1.4,-2.47 3.37,-3.71 5.92,-3.71 1.97,0 3.44,0.61 4.42,1.83 0.96,1.22 1.45,2.99 1.45,5.3zm17.15 -3.6l0 -3.05 5.25 0 0 23.23c0,1.83 -0.26,3.37 -0.78,4.62 -0.53,1.25 -1.43,2.22 -2.72,2.91 -1.29,0.69 -3.05,1.03 -5.26,1.03 -2.76,0 -4.87,-0.57 -6.31,-1.69 -1.45,-1.14 -2.17,-2.74 -2.17,-4.8l0 -0.44 6.44 0.65 0 0.06c0.08,1.13 0.88,1.68 2.4,1.68 0.75,0 1.32,-0.14 1.72,-0.44 0.4,-0.3 0.67,-0.74 0.82,-1.34 0.15,-0.59 0.22,-1.38 0.22,-2.39l0 -3.37c-1.16,1.95 -2.84,2.92 -5.04,2.92 -2.46,0 -4.3,-0.95 -5.53,-2.86 -1.24,-1.91 -1.86,-4.7 -1.86,-8.37 0,-3.75 0.57,-6.67 1.7,-8.75 1.14,-2.09 2.98,-3.13 5.52,-3.13 2.37,0 4.23,1.18 5.6,3.53zm-7.07 7.36c0,2.52 0.29,4.36 0.85,5.53 0.57,1.17 1.41,1.75 2.51,1.75 1.11,0 1.94,-0.54 2.49,-1.61 0.56,-1.08 0.83,-2.91 0.83,-5.49 0,-2.04 -0.3,-3.59 -0.92,-4.64 -0.62,-1.05 -1.46,-1.58 -2.52,-1.58 -1.11,0 -1.92,0.52 -2.45,1.55 -0.53,1.03 -0.79,2.52 -0.79,4.49zm32.32 12.22l-2.42 -12.98 -0.3 -1.79 -0.34 1.81 -2.52 12.96 -5.64 0 -5.87 -22.63 5.45 0 2.77 13.77 0.4 2.04 0.38 -2.15 2.53 -13.66 5.56 0 2.56 13.81c0.16,0.94 0.27,1.61 0.36,2l0.41 -2.07 2.76 -13.74 5.51 0 -5.93 22.63 -5.67 0zm13.65 -11.6c0,-2.29 0.35,-4.29 1.04,-6.02 0.68,-1.73 1.71,-3.08 3.08,-4.04 1.36,-0.97 3.04,-1.45 5.03,-1.45 2.07,0 3.78,0.52 5.12,1.54 1.35,1.03 2.33,2.42 2.97,4.17 0.63,1.75 0.94,3.76 0.94,6.01 0,2.57 -0.37,4.74 -1.1,6.52 -0.74,1.78 -1.79,3.13 -3.17,4.04 -1.36,0.9 -2.98,1.36 -4.85,1.36 -2.85,0 -5.07,-1.01 -6.67,-3.01 -1.59,-2.01 -2.39,-5.05 -2.39,-9.12zm9.08 -6.53c-1.21,0 -2.07,0.57 -2.57,1.71 -0.5,1.14 -0.76,2.85 -0.76,5.1 0,4.57 1.12,6.86 3.35,6.86 2.22,0 3.33,-2.26 3.33,-6.78 0,-2.44 -0.26,-4.2 -0.79,-5.27 -0.53,-1.08 -1.39,-1.62 -2.56,-1.62zm22.66 0.56c-1.17,0 -2.01,0.64 -2.53,1.91 -0.52,1.28 -0.78,3.29 -0.78,6.05l0 9.61 -5.73 0 0 -22.63 5.34 0 0 3.44c0.92,-2.61 2.38,-3.92 4.4,-3.92 0.87,0 1.77,0.25 2.69,0.76l-1.39 5.24c-0.75,-0.31 -1.42,-0.46 -2,-0.46zm15.36 -5.06l6.41 0 -5.83 8.14 6.44 14.49 -5.62 0 -4.2 -9.57 -1.33 1.9 0 7.67 -5.72 0 0 -23.29 5.72 0 0 8.29 4.13 -7.63z"/>
   </g>
  </g>
 </g>
</svg>
